<svg width="384" height="449" viewBox="0 0 384 449" fill="none" xmlns="http://www.w3.org/2000/svg">
<path d="M223.5 0.5C100 0.5 0 100.8 0 224.5C0 348.2 100 448.5 223.5 448.5C284.1 448.5 339 424.3 379.3 385.1C384.3 380.2 385.6 372.6 382.4 366.4C379.2 360.2 372.3 356.7 365.4 357.9C355.6 359.6 345.6 360.5 335.3 360.5C238.4 360.5 159.8 281.7 159.8 184.5C159.8 118.7 195.8 61.4 249.1 31.2C255.2 27.7 258.3 20.7 256.8 13.9C255.3 7.1 249.5 2 242.5 1.4C236.2 0.900002 229.9 0.599998 223.5 0.599998V0.5Z" fill="black"/>
</svg>
