<svg width="480" height="449" viewBox="0 0 480 449" fill="none" xmlns="http://www.w3.org/2000/svg">
<path d="M126.9 111.4C189.1 49.2 289.6 48.9 352.2 110.4L311 151.5C304.1 158.4 302.1 168.7 305.8 177.7C309.5 186.7 318.3 192.5 328 192.5H447.5H456C469.3 192.5 480 181.8 480 168.5V40.5C480 30.8 474.2 22 465.2 18.3C456.2 14.6 445.9 16.6 439 23.5L397.4 65.1C309.8 -21.4 168.7 -21.1 81.6 66.1C57.2 90.5 39.6 119.2 28.8 149.9C22.9 166.6 31.7 184.8 48.3 190.7C64.9 196.6 83.2 187.8 89.1 171.2C96.8 149.4 109.3 128.9 126.9 111.4ZM0 280.5V288.1V288.8V408.5C0 418.2 5.8 427 14.8 430.7C23.8 434.4 34.1 432.4 41 425.5L82.6 383.9C170.2 470.4 311.3 470.1 398.4 382.9C422.8 358.5 440.5 329.8 451.3 299.2C457.2 282.5 448.4 264.3 431.8 258.4C415.2 252.5 396.9 261.3 391 277.9C383.3 299.7 370.8 320.2 353.2 337.7C291 399.9 190.5 400.2 127.9 338.7L169 297.5C175.9 290.6 177.9 280.3 174.2 271.3C170.5 262.3 161.7 256.5 152 256.5H32.4H31.7H24C10.7 256.5 0 267.2 0 280.5Z" fill="black"/>
</svg>
