<svg width="512" height="513" viewBox="0 0 512 513" fill="none" xmlns="http://www.w3.org/2000/svg">
<g clip-path="url(#clip0_2_26)">
<path d="M361.5 1.70001C366.5 3.80001 370.1 8.30001 371.1 13.6L391 121.5L498.9 141.3C504.2 142.3 508.7 145.9 510.8 150.9C512.9 155.9 512.3 161.6 509.2 166.1L446.9 256.5L509.2 346.8C512.3 351.3 512.9 357 510.8 362C508.7 367 504.2 370.6 498.9 371.6L391 391.5L371.1 499.4C370.1 504.7 366.5 509.2 361.5 511.3C356.5 513.4 350.8 512.8 346.3 509.7L256 447.4L165.7 509.7C161.2 512.8 155.5 513.4 150.5 511.3C145.5 509.2 141.9 504.7 140.9 499.4L121 391.5L13.1 371.6C7.80004 370.6 3.30004 367 1.20004 362C-0.899963 357 -0.299963 351.3 2.80004 346.8L65.1 256.5L2.80004 166.2C-0.299963 161.7 -0.899963 156 1.20004 151C3.30004 146 7.80004 142.4 13.1 141.4L121 121.5L140.9 13.6C141.9 8.30001 145.5 3.80001 150.5 1.70001C155.5 -0.399993 161.2 0.200006 165.7 3.30001L256 65.6L346.3 3.30001C350.8 0.200006 356.5 -0.399993 361.5 1.70001ZM160 256.5C160 231.039 170.114 206.621 188.118 188.618C206.121 170.614 230.539 160.5 256 160.5C281.461 160.5 305.879 170.614 323.882 188.618C341.886 206.621 352 231.039 352 256.5C352 281.961 341.886 306.379 323.882 324.382C305.879 342.386 281.461 352.5 256 352.5C230.539 352.5 206.121 342.386 188.118 324.382C170.114 306.379 160 281.961 160 256.5ZM384 256.5C384 222.552 370.514 189.995 346.51 165.99C322.505 141.986 289.948 128.5 256 128.5C222.052 128.5 189.495 141.986 165.49 165.99C141.486 189.995 128 222.552 128 256.5C128 290.448 141.486 323.005 165.49 347.01C189.495 371.014 222.052 384.5 256 384.5C289.948 384.5 322.505 371.014 346.51 347.01C370.514 323.005 384 290.448 384 256.5Z" fill="black"/>
</g>
<defs>
<clipPath id="clip0_2_26">
<rect width="512" height="512" fill="white" transform="translate(0 0.5)"/>
</clipPath>
</defs>
</svg>
